<svg xmlns="http://www.w3.org/2000/svg" xmlns:xlink="http://www.w3.org/1999/xlink" width="500" zoomAndPan="magnify" viewBox="0 0 375 374.999991" height="500" preserveAspectRatio="xMidYMid meet" version="1.0"><defs><g/></defs><rect x="-37.5" width="450" fill="#ffffff" y="-37.499999" height="449.999989" fill-opacity="1"/><rect x="-37.5" width="450" fill="#231f20" y="-37.499999" height="449.999989" fill-opacity="1"/><g fill="#ffffff" fill-opacity="1"><g transform="translate(87.630599, 246.237228)"><g><path d="M 204.390625 -43.125 C 204.898438 -43.445312 205.601562 -43.609375 206.5 -43.609375 C 207.394531 -43.609375 208.175781 -43.375 208.84375 -42.90625 C 209.519531 -42.445312 209.648438 -41.757812 209.234375 -40.84375 C 203.835938 -30.519531 196.195312 -19.320312 186.3125 -7.25 C 176.4375 4.8125 166.742188 15.757812 157.234375 25.59375 C 147.722656 35.4375 140.78125 42.175781 136.40625 45.8125 C 126.082031 54.75 114.472656 62.554688 101.578125 69.234375 C 94.898438 72.785156 87.757812 75.710938 80.15625 78.015625 C 71.351562 80.679688 61.929688 81.601562 51.890625 80.78125 C 38.898438 79.757812 28.351562 74.785156 20.25 65.859375 C 14.8125 59.585938 11.332031 52.859375 9.8125 45.671875 C 6.632812 31.578125 7.234375 18.101562 11.609375 5.25 C 15.066406 -5.707031 19.90625 -16 26.125 -25.625 C 32.34375 -35.257812 39.617188 -44.382812 47.953125 -53 C 60.023438 -65.34375 73.753906 -76.488281 89.140625 -86.4375 C 89.554688 -86.757812 89.96875 -87.015625 90.375 -87.203125 C 91.164062 -87.617188 91.894531 -88.101562 92.5625 -88.65625 C 93.226562 -89.207031 93.65625 -90.035156 93.84375 -91.140625 C 85.457031 -93.765625 79.132812 -96.804688 74.875 -100.265625 C 70.613281 -103.722656 67.765625 -107.5 66.328125 -111.59375 C 64.898438 -115.695312 64.1875 -119.984375 64.1875 -124.453125 C 64.28125 -130.847656 65.59375 -136.972656 68.125 -142.828125 C 72 -152.453125 77.484375 -161.363281 84.578125 -169.5625 C 93.285156 -180.113281 103.210938 -189.90625 114.359375 -198.9375 C 119.515625 -203.40625 125.503906 -207.113281 132.328125 -210.0625 C 137.484375 -212.175781 143.148438 -212.867188 149.328125 -212.140625 C 153.472656 -211.765625 156.765625 -210.503906 159.203125 -208.359375 C 161.648438 -206.222656 162.914062 -203.585938 163 -200.453125 C 163 -196.585938 162.359375 -192.953125 161.078125 -189.546875 C 159.046875 -184.472656 156.648438 -179.492188 153.890625 -174.609375 C 151.347656 -170.046875 148.765625 -165.535156 146.140625 -161.078125 C 144.941406 -159.046875 143.769531 -157.015625 142.625 -154.984375 C 141.75 -153.378906 140.695312 -152.320312 139.46875 -151.8125 C 138.25 -151.300781 136.46875 -151.207031 134.125 -151.53125 C 132.601562 -151.8125 131.390625 -152.351562 130.484375 -153.15625 C 129.585938 -153.96875 129.28125 -154.878906 129.5625 -155.890625 C 130.15625 -158.148438 131.03125 -160.289062 132.1875 -162.3125 C 134.21875 -165.945312 136.289062 -169.539062 138.40625 -173.09375 C 139.507812 -175.03125 140.613281 -176.960938 141.71875 -178.890625 C 144.488281 -183.640625 146.5625 -188.640625 147.9375 -193.890625 C 148.675781 -196.421875 148.835938 -199.023438 148.421875 -201.703125 C 148.097656 -203.222656 147.335938 -204.28125 146.140625 -204.875 C 144.941406 -205.476562 143.582031 -205.429688 142.0625 -204.734375 C 138.707031 -203.222656 135.597656 -201.453125 132.734375 -199.421875 C 114.722656 -186.109375 99.984375 -170.695312 88.515625 -153.1875 C 82.660156 -144.34375 79.367188 -134.671875 78.640625 -124.171875 C 78.128906 -118.597656 79.648438 -113.070312 83.203125 -107.59375 C 86.234375 -103.300781 90.582031 -100.144531 96.25 -98.125 C 101.457031 -96.09375 106.476562 -96.09375 111.3125 -98.125 C 116.476562 -100.375 122.007812 -102.21875 127.90625 -103.65625 C 133.382812 -105.164062 139.210938 -105.460938 145.390625 -104.546875 C 147.503906 -104.222656 149.066406 -103.300781 150.078125 -101.78125 C 150.910156 -100.164062 150.566406 -98.851562 149.046875 -97.84375 C 146.515625 -96.320312 143.820312 -95.054688 140.96875 -94.046875 C 134.789062 -91.835938 128.15625 -90.570312 121.0625 -90.25 C 116.914062 -90.15625 113.320312 -89.140625 110.28125 -87.203125 C 91.300781 -76.148438 74.945312 -63.484375 61.21875 -49.203125 C 47.488281 -34.921875 36.78125 -18.75 29.09375 -0.6875 C 25.957031 6.675781 23.984375 14.265625 23.171875 22.078125 C 22.367188 29.890625 22.984375 37.894531 25.015625 46.09375 C 26.398438 52.8125 29.738281 59.003906 35.03125 64.671875 C 42.632812 72.785156 52.101562 75.875 63.4375 73.9375 C 70.25 72.832031 76.535156 70.894531 82.296875 68.125 C 92.847656 63.289062 103.441406 57.070312 114.078125 49.46875 C 124.722656 41.875 134.648438 33.769531 143.859375 25.15625 C 153.078125 16.539062 160.976562 8.269531 167.5625 0.34375 C 171.53125 -4.3125 176.503906 -10.140625 182.484375 -17.140625 C 191.191406 -27.367188 198.492188 -36.03125 204.390625 -43.125 Z M 204.390625 -43.125 "/></g></g></g></svg>